<svg xmlns="http://www.w3.org/2000/svg" width="349.856" height="414.888" viewBox="0 0 349.856 414.888">
  <g id="Group_1" data-name="Group 1" transform="translate(0.001 0)">
    <path id="Union_1" data-name="Union 1" d="M112.9,414.888a111.862,111.862,0,0,1-79.853-33.262A113.044,113.044,0,0,1,0,301.346a37.622,37.622,0,0,1,11.067-26.662l76.248-75.931a37.245,37.245,0,0,1,26.3-10.878h123.34c.873,0,1.755.01,2.623.03a74.243,74.243,0,0,0,71.4-74.417c0-41.04-33.209-74.428-74.028-74.428H112.9c-40.819,0-74.028,33.388-74.028,74.427v77.754h-.088a19.438,19.438,0,0,1-38.7,0H0V113.488C0,50.911,50.646,0,112.9,0H236.955c62.252,0,112.9,50.911,112.9,113.488A113.023,113.023,0,0,1,316.81,193.75a114.565,114.565,0,0,1-16.48,13.735,113.852,113.852,0,0,1,16.48,174.141,111.865,111.865,0,0,1-79.853,33.262Zm-74.025-112.9a74.128,74.128,0,0,0,21.67,52.032A73.341,73.341,0,0,0,112.9,375.827H236.955a73.341,73.341,0,0,0,52.355-21.809,74.459,74.459,0,0,0-49.741-127.036c-.867.019-1.747.03-2.615.03H149.5l.08-.075H114.237Z" fill="#2f3135"/>
    <path id="Line_2" data-name="Line 2" d="M145.7,31.13H13.065a18.065,18.065,0,1,1,0-36.13H145.7a18.065,18.065,0,1,1,0,36.13Z" transform="translate(95.545 100.441)" fill="#106fff"/>
    <path id="Line_5" data-name="Line 5" d="M145.7,31.13H13.065a18.065,18.065,0,1,1,0-36.13H145.7a18.065,18.065,0,1,1,0,36.13Z" transform="translate(96.828 288.317)" fill="#106fff"/>
  </g>
</svg>
